HIERARCHY
ROOT Hips
{
  OFFSET -31.5692 30.0904 122.763
  CHANNELS 6 Xposition Yposition Zposition Zrotation Xrotation Yrotation
  JOINT LeftUpLeg
  {
    OFFSET 8.64259 1.95398 -2.38835
    CHANNELS 3 Zrotation Xrotation Yrotation
    JOINT LeftLeg
    {
      OFFSET 43.7702 0 0
      CHANNELS 3 Zrotation Xrotation Yrotation
      JOINT LeftFoot
      {
        OFFSET 40.6238 0 0
        CHANNELS 3 Zrotation Xrotation Yrotation
        JOINT LeftToeBase
        {
          OFFSET 12.7242 0 0
          CHANNELS 3 Zrotation Xrotation Yrotation
          End Site
          {
            OFFSET 0 0 0
          }
        }
      }
    }
  }
  JOINT RightUpLeg
  {
    OFFSET -8.2249 1.95398 -2.59336
    CHANNELS 3 Zrotation Xrotation Yrotation
    JOINT RightLeg
    {
      OFFSET 43.5653 0 0
      CHANNELS 3 Zrotation Xrotation Yrotation
      JOINT RightFoot
      {
        OFFSET 40.6238 0 0
        CHANNELS 3 Zrotation Xrotation Yrotation
        JOINT RightToeBase
        {
          OFFSET 12.7242 0 0
          CHANNELS 3 Zrotation Xrotation Yrotation
          End Site
          {
            OFFSET 0 0 0
          }
        }
      }
    }
  }
  JOINT Spine
  {
    OFFSET 0.165834 0.87714 6.61349
    CHANNELS 3 Zrotation Xrotation Yrotation
    JOINT Spine1
    {
      OFFSET 7.38963 1.71661e-005 0
      CHANNELS 3 Zrotation Xrotation Yrotation
      JOINT Spine2
      {
        OFFSET 11.9445 1.14441e-005 0
        CHANNELS 3 Zrotation Xrotation Yrotation
        JOINT Spine3
        {
          OFFSET 14.7254 4.19617e-005 0
          CHANNELS 3 Zrotation Xrotation Yrotation
          JOINT Spine4
          {
            OFFSET 10.9679 0 0
            CHANNELS 3 Zrotation Xrotation Yrotation
            JOINT RightShoulder
            {
              OFFSET 2.46616 -1.6653 3.69651
              CHANNELS 3 Zrotation Xrotation Yrotation
              JOINT RightArm
              {
                OFFSET 13.0012 0 0
                CHANNELS 3 Zrotation Xrotation Yrotation
                JOINT RightForeArm
                {
                  OFFSET 28.7848 1.62311e-005 0
                  CHANNELS 3 Zrotation Xrotation Yrotation
                  JOINT RightHand
                  {
                    OFFSET 26.5688 1.62095e-005 0
                    CHANNELS 3 Zrotation Xrotation Yrotation
                    End Site
                    {
                      OFFSET 0 0 0
                    }
                  }
                }
              }
            }
            JOINT LeftShoulder
            {
              OFFSET 2.38034 -1.29275 -3.7523
              CHANNELS 3 Zrotation Xrotation Yrotation
              JOINT LeftArm
              {
                OFFSET 16.3182 6.07031e-005 0
                CHANNELS 3 Zrotation Xrotation Yrotation
                JOINT LeftForeArm
                {
                  OFFSET 27.0901 0 0
                  CHANNELS 3 Zrotation Xrotation Yrotation
                  JOINT LeftHand
                  {
                    OFFSET 24.5451 1.51738e-005 0
                    CHANNELS 3 Zrotation Xrotation Yrotation
                    End Site
                    {
                      OFFSET 0 0 0
                    }
                  }
                }
              }
            }
            JOINT Neck
            {
              OFFSET 5.0226 -0.0266342 0
              CHANNELS 3 Zrotation Xrotation Yrotation
              JOINT Head
              {
                OFFSET 6.69364 2.86102e-005 0
                CHANNELS 3 Zrotation Xrotation Yrotation
                End Site
                {
                  OFFSET 0 0 0
                }
              }
            }
          }
        }
      }
    }
  }
}
MOTION
Frames:	18
Frame Time:	0.0416667
-245.051 68.4507 234.133 101.524 47.179 86.325 -141.165 69.8464 51.9495 -7.53662 17.0078 -0.10813 20.0305 14.8796 -33.6553 154.006 -2.57746 -61.5481 -157.218 -55.1481 119.531 -8.4941 -6.82043 0.40547 122.843 -14.3876 1.17251 21.263 2.19829 4.83687 -0.764335 8.0214 -90.5175 10.8244 -1.76088 -0.865062 -0.84561 -1.79722 -0.786717 -23.3852 -1.41949 -1.35432 -3.37256 -1.4195 -1.35433 89.639 -32.786 -106.422 38.8041 -3.47147 2.2226 6.93987 -41.741 -10.0807 -56.777 7.43868 -25.0247 -89.6829 -52.3114 79.6754 -18.9081 10.1189 -27.9771 -4.28431 10.4615 -0.00663791 9.11262 -0.556857 -12.2051 3.43697 -1.32608 -9.19816 -4.89839 0.256054 -0.423557 
-239.854 69.5038 229.149 103.734 46.4222 85.5773 -149.743 69.7995 60.7642 -8.15229 22.848 0.751282 19.568 10.5647 -31.8386 154.041 -3.55577 -62.3994 -155.073 -58.2494 121.784 -8.08868 -7.57584 0.210891 118.549 -15.5474 0.550884 20.3969 2.767 4.14095 -0.588498 7.99855 -90.5854 10.8696 -1.44215 -1.02913 -0.800867 -1.48604 -0.964659 -23.3367 -1.06622 -1.41496 -3.32406 -1.06621 -1.41496 89.9496 -32.6141 -105.892 39.7131 -3.35198 2.60108 7.19196 -22.128 -9.06551 -19.6625 -1.80995 -1.22963 -89.6442 -50.906 79.4473 -22.7091 11.5824 -20.8392 -4.73003 10.2974 -0.00663443 3.04919 -0.069574 -15.1289 2.59449 -1.40802 -9.4681 -5.59614 0.147609 -0.0419543 
-234.35 70.3581 224.154 103.833 47.8402 85.5093 -156.554 68.3879 65.9717 -4.36611 25.2708 0.385442 17.3115 7.98326 -31.8963 154.163 -4.55883 -63.2684 -155.072 -59.7162 123.157 -8.16672 -6.14065 0.362766 119.407 -16.0807 1.53542 22.5495 1.90943 3.85698 -0.397366 7.94163 -90.6412 10.9817 -1.088 -1.17297 -0.689263 -1.13858 -1.12396 -23.222 -0.685218 -1.44569 -3.20934 -0.685217 -1.44569 90.0274 -32.0194 -105.957 39.3855 -4.05573 1.18996 6.1605 -23.932 -11.7088 -21.029 0.157981 -10.9091 -89.5197 -51.2038 79.6877 -24.2715 9.79152 -11.4813 -4.74829 13.163 -0.0067037 3.90146 -0.0298534 -14.1818 2.68679 -2.2302 -8.11938 -4.45696 -0.881553 -0.227525 
-230.604 71.5908 220.612 105.006 47.8391 82.6415 -160.343 66.8534 68.7128 -3.0062 14.5351 0.215171 18.0398 16.3272 -34.9283 155.164 -3.63709 -62.1806 -161.917 -63.2107 116.339 -8.50123 -7.58438 0.242825 119.999 -16.1564 2.29639 24.1709 1.33405 3.32906 0.139545 8.04423 -90.3304 10.7902 0.125396 -0.667639 -0.880948 0.0958808 -0.672516 -23.415 0.320246 -0.599088 -3.40234 0.320256 -0.599091 89.8499 -32.9376 -105.968 37.2888 -4.60424 -2.36837 5.11485 -24.51 -13.9426 -25.6695 -0.376664 -7.40854 -88.5524 -48.7332 80.6484 -27.4105 7.54561 -4.33842 -3.16305 8.18459 0.0266899 4.41008 -0.518703 -17.0945 1.4343 -3.89818 -10.7524 -2.76447 -2.21003 1.24729 
-229.642 73.0217 219.299 103.729 46.1341 80.553 -162.715 68.2254 70.9761 -4.33553 0.0244418 0.165581 21.3997 21.2226 -38.3063 156.398 -1.71726 -60.2101 -177.597 -64.8089 99.2029 -8.42745 -11.5503 -0.784172 119.5 -16.1208 2.62185 24.4572 1.24699 3.17652 0.597713 8.09756 -90.0615 10.6803 1.16198 -0.228351 -0.990109 1.15081 -0.279284 -23.5294 1.1769 0.13149 -3.51679 1.1769 0.131486 90.863 -30.1108 -105.005 36.369 -5.9699 -8.23503 4.28867 -33.4795 -14.7285 -24.4049 -0.471888 -8.83362 -87.8199 -49.8902 81.9748 -26.4302 7.2065 0.0218799 -2.86061 6.26079 -0.449784 3.83828 -0.661549 -18.7166 2.22328 -4.36593 -6.82501 -3.70483 -3.22564 -0.876123 
-229.202 73.8325 218.304 102.633 45.4093 79.5475 -165.918 70.6498 73.5106 -7.4003 0.0721313 0.0315106 23.5494 11.1192 -36.2396 155.898 -0.880828 -59.6026 172.392 -64.8312 88.8362 -7.47848 -13.1427 -1.86541 118.168 -16.3432 1.91871 26.3731 0.507989 2.71787 0.800421 8.15337 -90.0356 10.5697 1.57774 -0.213058 -1.10031 1.56683 -0.282316 -23.6431 1.5688 0.271085 -3.63046 1.56882 0.271084 90.9219 -27.8357 -105.726 34.4149 -6.43922 -12.6167 3.12071 -23.9732 -17.9407 -28.2721 -0.255161 -7.63573 -87.2755 -52.9624 83.2958 -24.041 7.79027 2.10614 -3.21587 6.49159 -1.32318 3.32376 -0.627219 -19.5156 3.50564 -3.27623 1.141 -3.98051 -3.42294 -4.82075 
-227.46 73.6533 216.086 102.528 44.7419 79.3688 -164.512 71.0968 72.4808 -8.47678 0.103941 -0.704963 24.4718 4.90156 -34.7848 155.14 -0.220161 -59.1945 164.468 -65.3267 80.6863 -7.25768 -15.1882 -1.97031 117.064 -17.8812 1.81374 28.9879 -0.404473 1.53976 0.969444 8.22749 -90.1822 10.4234 1.84775 -0.524037 -1.24636 1.82291 -0.604884 -23.792 1.9198 0.0557204 -3.77933 1.9198 0.0557186 89.9977 -28.0669 -107.523 30.8484 -5.55061 -14.9068 1.53134 -24.9476 -20.1307 -28.0293 0.244198 -10.2814 -86.7377 -55.3747 84.4406 -24.4583 7.3209 3.04248 -3.03974 6.04792 -1.539 3.55989 -0.594936 -18.1548 4.31723 -2.65557 5.18694 -3.51091 -3.52737 -4.94667 
-224.028 73.6673 212.625 102.343 42.8029 78.8055 -163.658 70.8541 72.7341 -8.45857 2.24514 -1.07988 24.9749 3.48517 -32.9781 155.716 -0.956994 -59.7036 154.257 -65.0602 69.4402 -8.40999 -16.4412 -3.10399 112.283 -15.6021 2.46125 33.1087 -2.42557 2.69087 1.18912 8.16067 -90.0433 10.5572 2.34871 -0.296235 -1.11174 2.33337 -0.399376 -23.6636 2.32905 0.423729 -3.65094 2.32909 0.423739 88.994 -29.728 -108.859 30.7535 -4.74059 -14.8946 1.5371 -26.3088 -18.9554 -26.3606 0.496953 -12.0306 -86.8943 -56.302 84.3499 -26.1983 5.25832 4.72329 -2.19129 5.77367 -0.620071 2.07521 -0.415054 -18.3495 2.98099 -2.69258 2.64849 -2.72684 -3.11079 -2.64077 
-220.296 74.9381 209.045 101.418 40.8887 77.4539 -157.549 69.9313 67.4154 -8.22671 3.71263 -0.972985 25.8727 4.25437 -32.2492 156.002 -1.7666 -60.3457 144.459 -62.2346 57.1291 -9.13987 -23.5829 -2.32156 92.2052 -9.60053 -2.45593 41.7023 -6.2878 6.03137 1.20986 7.96635 -89.6872 10.9388 2.55325 0.380479 -0.729638 2.56756 0.267651 -23.2817 2.32082 1.13064 -3.26904 2.32084 1.13064 88.7613 -29.9933 -109.208 35.0099 -5.69902 -11.9934 4.02839 -23.4517 -15.232 -25.7546 0.331496 -10.7168 -86.333 -55.9458 85.0898 -27.4957 4.23251 4.78033 -1.82382 5.11921 -0.00272365 0.318755 -0.116347 -16.2488 2.65168 -2.16093 1.2889 -4.44399 -2.31493 -3.42154 
-217.516 76.5804 206.809 102.655 40.0225 74.929 -151.995 67.1386 61.9828 -8.12256 4.67866 -1.32546 26.9696 5.81567 -32.1021 155.991 -1.79136 -60.3696 138.111 -62.0957 48.7248 -5.50765 -27.7701 -0.817738 70.4751 -1.80686 0.424529 24.1067 0.774565 5.65719 0.979832 8.07494 -89.3763 10.713 2.23867 1.03414 -0.956373 2.28202 0.934574 -23.4991 1.8244 1.65924 -3.48649 1.82439 1.65924 89.5162 -30.5312 -107.508 38.0049 -7.09859 -8.93148 5.79905 -24.011 -13.7472 -24.9073 0.00919146 -9.39874 -87.728 -53.4581 82.7255 -26.7578 5.77888 0.116381 -2.78983 4.89711 -0.00389797 0.521344 -0.0615373 -15.7282 2.86464 -2.07073 -2.04036 -4.15799 -1.69901 -1.75856 
-215.287 78.3761 205.771 102.369 39.2336 76.1333 -151.712 66.9677 62.5501 -8.32806 4.08415 -1.86902 28.0994 8.55624 -32.5906 156.098 -1.71692 -60.28 149.647 -61.8815 59.5263 -1.79209 -20.4853 -0.287335 73.5262 -6.08782 0.0270537 25.2742 0.227195 6.01265 0.545597 8.1071 -89.4626 10.6537 1.334 0.94717 -1.01689 1.37439 0.887533 -23.5527 0.987684 1.30428 -3.54002 0.987686 1.30429 89.5205 -30.3013 -107.591 38.9734 -6.63214 -6.1975 5.36847 -26.3908 -14.3832 -26.8784 -0.348269 -7.78589 -87.9933 -53.341 82.3204 -21.7381 6.01315 -5.65473 -3.23873 4.79164 -0.00610216 3.3806 -0.393897 -16.0307 1.46537 -0.390844 -1.59543 -2.61331 -0.155508 -1.53153 
-212.753 80.5195 205.134 102.178 40.3397 79.9173 -153.776 67.3068 63.9455 -8.37053 7.19016 -0.832179 29.1409 10.1875 -33.0571 156.247 -1.65039 -60.1878 174.359 -42.7118 86.6953 -24.13 -6.52271 -2.34798 96.3453 -10.8208 -1.19179 23.3209 1.01258 6.07992 0.151727 8.08767 -89.8154 10.6993 0.387312 0.332239 -0.971592 0.40155 0.314857 -23.5068 0.269553 0.433277 -3.49412 0.269565 0.43327 89.3005 -31.1273 -107.696 39.067 -5.28097 -2.76011 4.81272 -25.4512 -14.7058 -25.1376 0.0808466 -9.97 -87.6735 -51.2059 82.4241 -18.3791 4.42388 -11.9973 -2.36904 4.42777 -0.00862958 7.31893 -0.738141 -14.2054 -1.02432 0.295639 -3.98041 -2.13577 0.814603 0.424323 
-209.919 81.5337 204.205 102.589 42.6962 81.6978 -151.195 66.0546 59.3754 -8.29737 11.4768 0.178142 29.9302 11.8225 -33.4541 156.358 -1.62996 -60.1443 179.093 -11.2098 98.5569 -56.6645 -3.10771 -4.92446 118.202 -13.6216 -1.86869 24.8262 1.23064 2.57227 -0.261083 8.18921 -90.0312 10.4955 -0.534319 -0.0143998 -1.17531 -0.534424 0.00913219 -23.7113 -0.505284 -0.174321 -3.69864 -0.505275 -0.174315 89.3162 -31.4567 -107.538 38.9316 -4.44174 -0.116476 4.89555 -24.0485 -14.3668 -26.5779 0.25925 -10.3184 -87.756 -48.6341 81.845 -16.5738 3.25813 -18.818 -2.09936 4.41287 -0.0109327 3.44619 -0.7727 -20.8965 -0.870554 0.539695 -6.50722 -2.40369 1.41437 2.0432 
-206.824 81.728 202.719 102.775 44.6952 81.7375 -144.974 63.5429 51.487 -8.11002 14.642 0.320508 30.6261 14.6109 -34.0538 156.54 -1.49702 -59.9882 176.805 10.8918 99.9748 -72.1398 -4.62399 -2.04235 127.977 -15.7757 0.535709 25.7122 0.154273 5.5446 -0.482942 8.27058 -90.0254 10.3333 -0.973645 0.034007 -1.33732 -0.971207 0.0768319 -23.8753 -0.938849 -0.260217 -3.86266 -0.938861 -0.260214 89.122 -32.7896 -107.405 38.4044 -3.65964 2.02636 4.99972 -24.1122 -13.81 -25.2837 -0.135694 -8.53162 -88.1791 -47.2537 80.9345 -15.7915 1.61224 -25.7887 -1.56454 5.29729 -0.440596 7.35586 -1.62145 -23.4804 -1.0521 -0.300287 -9.29146 -1.78106 0.956846 2.74714 
-203.439 81.5644 200.735 103.009 45.492 81.4809 -139.388 60.4111 45.2855 -7.84019 16.7917 0.169139 31.3728 18.6163 -34.968 156.73 -1.41243 -59.8723 175.545 20.3234 101.852 -73.8257 -3.36967 -0.469598 124.286 -13.4786 -1.62181 24.9927 0.495373 5.3557 -0.546462 8.23943 -90.0017 10.3954 -1.08928 0.091703 -1.27509 -1.08419 0.139553 -23.8138 -1.06647 -0.239953 -3.80111 -1.06648 -0.239959 89.0581 -33.7242 -107.175 38.442 -3.31204 3.38693 6.15339 -24.7099 -11.5506 -22.4073 -0.33876 -7.85097 -88.6327 -47.6561 80.3117 -16.7577 1.0252 -28.2581 -0.165235 7.62826 -2.5684 7.39642 -1.68949 -24.4994 -0.220684 -0.895524 -10.1965 -2.71795 0.534266 2.65115 
-199.429 82.5022 197.882 103.299 46.5658 82.7011 -137.244 57.9705 41.8991 -8.8937 21.6586 1.5091 32.4727 20.3677 -34.6545 157.261 -1.3986 -59.7493 175.15 19.1265 102.711 -70.0677 -4.98188 0.709163 110.16 -9.77518 -1.72997 19.3813 2.80049 5.52956 -0.7006 8.10689 -90.2443 10.6587 -1.50752 -0.347946 -1.01142 -1.52137 -0.281246 -23.552 -1.33326 -0.785 -3.53933 -1.33324 -0.785 89.2516 -32.9681 -107.09 39.4697 -2.62923 3.84377 6.87577 -25.417 -9.27795 -21.0726 -0.627277 -6.24528 -88.9834 -49.4515 80.1405 -17.6835 2.74059 -26.4007 -0.470561 11.3479 -1.83228 6.12724 -1.40296 -24.7624 1.58464 -0.599658 -8.07487 -4.01059 0.640059 1.45244 
-194.446 84.2711 194.519 103.278 45.8876 85.0478 -141.972 58.5526 47.0542 -7.86537 21.874 0.884512 32.3486 23.6005 -34.7116 157.12 -3.46787 -61.5205 176.068 13.4013 103.722 -63.9173 -6.29203 2.94509 101.503 -10.5071 -1.93965 17.813 3.88745 4.18923 -0.624201 7.96285 -90.5722 10.941 -1.50741 -0.995388 -0.729396 -1.54979 -0.928068 -23.2659 -1.1386 -1.40239 -3.25328 -1.13861 -1.4024 89.7485 -31.296 -106.761 40.5104 -2.84573 3.29362 6.50209 -24.7121 -9.72474 -21.7635 -0.595406 -6.30021 -88.8503 -49.7297 80.3957 -20.749 6.41253 -21.4186 -2.5529 11.713 -0.00408313 5.49982 -0.80445 -19.8093 2.05827 -0.428843 -6.03367 -4.86433 0.517457 0.778639 
-189.034 85.9873 190.907 104.82 46.784 85.0527 -148.296 55.8218 52.0238 -4.17491 20.6459 0.439355 31.736 24.2328 -36.6596 158.2 -5.0988 -62.5975 176.805 3.8734 105.279 -55.163 -6.48036 3.57148 99.1437 -13.2906 -3.48597 21.0631 2.44626 4.25139 -0.474121 8.09399 -90.6847 10.6772 -1.25947 -1.24614 -0.993685 -1.31308 -1.18951 -23.5265 -0.826768 -1.56699 -3.51389 -0.826769 -1.56699 89.9482 -31.2291 -106.399 39.4263 -3.72345 0.0791548 5.30296 -23.6418 -12.5351 -22.0803 -0.0285244 -9.48319 -88.8509 -50.1636 80.4794 -23.5607 7.62826 -16.4369 -3.11199 11.5819 -0.00464327 3.33085 -0.3423 -18.8194 2.5904 -1.00649 -4.93937 -3.8803 -0.193852 0.104801 
